<svg width="18" height="18" viewBox="0 0 18 18" fill="none" xmlns="http://www.w3.org/2000/svg">
<path d="M11.75 17.25V14.0417C11.75 13.125 11.8417 12.7583 11.2917 12.2083C13.8583 11.9333 16.3333 10.925 16.3333 6.70833C16.3322 5.61289 15.9048 4.56087 15.1417 3.775C15.4996 2.82347 15.4666 1.76899 15.05 0.841667C15.05 0.841667 14.0417 0.566667 11.8417 2.03333C9.9783 1.54804 8.0217 1.54804 6.15833 2.03333C3.95833 0.566667 2.95 0.841667 2.95 0.841667C2.53336 1.76899 2.50041 2.82347 2.85833 3.775C2.09517 4.56087 1.66778 5.61289 1.66667 6.70833C1.66667 10.925 4.14167 11.9333 6.70833 12.2083C6.15833 12.7583 6.15833 13.3083 6.25 14.0417V17.25M6.25 15.4167C2.30833 16.7 2.30833 13.125 0.75 12.6667L6.25 15.4167Z" stroke="white" stroke-width="1.375" stroke-linecap="round" stroke-linejoin="round"/>
</svg>
